<svg width="144" height="24" viewBox="0 0 144 24" fill="none" xmlns="http://www.w3.org/2000/svg">
<path d="M4.032 0.599998H8.8L12.448 23H8.928L8.288 18.552V18.616H4.288L3.648 23H0.384L4.032 0.599998ZM7.872 15.576L6.304 4.504H6.24L4.704 15.576H7.872ZM13.8358 0.599998H19.1478C20.9611 0.599998 22.2838 1.02667 23.1158 1.88C23.9478 2.712 24.3638 4.00267 24.3638 5.752V6.648C24.3638 7.8 24.1718 8.73867 23.7878 9.464C23.4251 10.1893 22.8598 10.712 22.0918 11.032V11.096C23.8411 11.6933 24.7158 13.2507 24.7158 15.768V17.688C24.7158 19.416 24.2571 20.7387 23.3398 21.656C22.4438 22.552 21.1211 23 19.3718 23H13.8358V0.599998ZM18.7318 9.72C19.4358 9.72 19.9584 9.53867 20.2998 9.176C20.6624 8.81333 20.8438 8.20533 20.8438 7.352V6.104C20.8438 5.29333 20.6944 4.70667 20.3958 4.344C20.1184 3.98133 19.6704 3.8 19.0518 3.8H17.3558V9.72H18.7318ZM19.3718 19.8C19.9904 19.8 20.4491 19.64 20.7478 19.32C21.0464 18.9787 21.1958 18.4027 21.1958 17.592V15.64C21.1958 14.616 21.0144 13.912 20.6518 13.528C20.3104 13.1227 19.7344 12.92 18.9238 12.92H17.3558V19.8H19.3718ZM26.4533 0.599998H31.8293C33.5786 0.599998 34.8906 1.06933 35.7653 2.008C36.6399 2.94667 37.0773 4.32267 37.0773 6.136V17.464C37.0773 19.2773 36.6399 20.6533 35.7653 21.592C34.8906 22.5307 33.5786 23 31.8293 23H26.4533V0.599998ZM31.7653 19.8C32.3413 19.8 32.7786 19.6293 33.0773 19.288C33.3973 18.9467 33.5573 18.392 33.5573 17.624V5.976C33.5573 5.208 33.3973 4.65333 33.0773 4.312C32.7786 3.97067 32.3413 3.8 31.7653 3.8H29.9733V19.8H31.7653ZM44.2533 23.32C42.5466 23.32 41.2453 22.84 40.3493 21.88C39.4533 20.8987 39.0053 19.5013 39.0053 17.688V0.599998H42.5253V17.944C42.5253 18.712 42.6746 19.2667 42.9733 19.608C43.2933 19.9493 43.7413 20.12 44.3173 20.12C44.8933 20.12 45.3306 19.9493 45.6293 19.608C45.9493 19.2667 46.1093 18.712 46.1093 17.944V0.599998H49.5013V17.688C49.5013 19.5013 49.0533 20.8987 48.1573 21.88C47.2613 22.84 45.9599 23.32 44.2533 23.32ZM51.6883 0.599998H55.2083V19.8H61.0003V23H51.6883V0.599998ZM59.9715 0.599998H63.5235L65.8275 17.976H65.8915L68.1955 0.599998H71.4275L68.0355 23H63.3635L59.9715 0.599998ZM74.612 0.599998H79.38L83.028 23H79.508L78.868 18.552V18.616H74.868L74.228 23H70.964L74.612 0.599998ZM78.452 15.576L76.884 4.504H76.82L75.284 15.576H78.452ZM84.4158 0.599998H87.9358V9.72H91.7118V0.599998H95.2318V23H91.7118V12.92H87.9358V23H84.4158V0.599998ZM102.621 23.32C100.893 23.32 99.5706 22.8293 98.6533 21.848C97.7359 20.8667 97.2773 19.48 97.2773 17.688V5.912C97.2773 4.12 97.7359 2.73333 98.6533 1.752C99.5706 0.770665 100.893 0.279999 102.621 0.279999C104.349 0.279999 105.672 0.770665 106.589 1.752C107.507 2.73333 107.965 4.12 107.965 5.912V17.688C107.965 19.48 107.507 20.8667 106.589 21.848C105.672 22.8293 104.349 23.32 102.621 23.32ZM102.621 20.12C103.837 20.12 104.445 19.384 104.445 17.912V5.688C104.445 4.216 103.837 3.48 102.621 3.48C101.405 3.48 100.797 4.216 100.797 5.688V17.912C100.797 19.384 101.405 20.12 102.621 20.12ZM110.026 0.599998H115.338C117.151 0.599998 118.474 1.02667 119.306 1.88C120.138 2.712 120.554 4.00267 120.554 5.752V6.648C120.554 7.8 120.362 8.73867 119.978 9.464C119.615 10.1893 119.05 10.712 118.282 11.032V11.096C120.031 11.6933 120.906 13.2507 120.906 15.768V17.688C120.906 19.416 120.447 20.7387 119.53 21.656C118.634 22.552 117.311 23 115.562 23H110.026V0.599998ZM114.922 9.72C115.626 9.72 116.148 9.53867 116.49 9.176C116.852 8.81333 117.034 8.20533 117.034 7.352V6.104C117.034 5.29333 116.884 4.70667 116.586 4.344C116.308 3.98133 115.86 3.8 115.242 3.8H113.546V9.72H114.922ZM115.562 19.8C116.18 19.8 116.639 19.64 116.938 19.32C117.236 18.9787 117.386 18.4027 117.386 17.592V15.64C117.386 14.616 117.204 13.912 116.842 13.528C116.5 13.1227 115.924 12.92 115.114 12.92H113.546V19.8H115.562ZM130.168 0.599998H134.936L138.584 23H135.064L134.424 18.552V18.616H130.424L129.784 23H126.52L130.168 0.599998ZM134.008 15.576L132.44 4.504H132.376L130.84 15.576H134.008ZM140.285 19.608H143.677V23H140.285V19.608Z" fill="#C7C7C7"/>
</svg>
